<mxfile host="drawio-plugin" modified="2023-10-18T19:42:38.347Z" agent="5.0 (Windows NT 10.0; Win64; x64) AppleWebKit/537.36 (KHTML, like Gecko) Chrome/111.0.0.0 Safari/537.36" etag="4uc_L5dWRzQcE0BXTFKA" version="20.5.3" type="embed"><diagram name="Seite-1" id="-2VjJTFV00PebQVn-Hf1"><mxGraphModel dx="1734" dy="651" grid="1" gridSize="10" guides="1" tooltips="1" connect="1" arrows="1" fold="1" page="1" pageScale="1" pageWidth="827" pageHeight="1169" math="0" shadow="0"><root><mxCell id="0"/><mxCell id="1" parent="0"/><mxCell id="154" value="" style="shape=folder;fontStyle=1;spacingTop=10;tabWidth=40;tabHeight=14;tabPosition=left;html=1;" vertex="1" parent="1"><mxGeometry x="250" y="200" width="480" height="340" as="geometry"/></mxCell><mxCell id="155" value="SerialBus" style="shape=module;align=left;spacingLeft=20;align=center;verticalAlign=top;" vertex="1" parent="1"><mxGeometry x="270" y="480" width="100" height="50" as="geometry"/></mxCell><mxCell id="156" value="Encoding" style="shape=module;align=left;spacingLeft=20;align=center;verticalAlign=top;" vertex="1" parent="1"><mxGeometry x="270" y="370" width="100" height="50" as="geometry"/></mxCell><mxCell id="157" value="" style="line;strokeWidth=1;fillColor=none;align=left;verticalAlign=middle;spacingTop=-1;spacingLeft=3;spacingRight=3;rotatable=0;labelPosition=right;points=[];portConstraint=eastwest;strokeColor=inherit;" vertex="1" parent="1"><mxGeometry x="250" y="430" width="480" height="8" as="geometry"/></mxCell><mxCell id="158" value="Hardware communication layer" style="text;align=center;fontStyle=1;verticalAlign=middle;spacingLeft=3;spacingRight=3;strokeColor=none;rotatable=0;points=[[0,0.5],[1,0.5]];portConstraint=eastwest;" vertex="1" parent="1"><mxGeometry x="250" y="438" width="200" height="26" as="geometry"/></mxCell><mxCell id="159" value="" style="line;strokeWidth=1;fillColor=none;align=left;verticalAlign=middle;spacingTop=-1;spacingLeft=3;spacingRight=3;rotatable=0;labelPosition=right;points=[];portConstraint=eastwest;strokeColor=inherit;" vertex="1" parent="1"><mxGeometry x="250" y="320" width="480" height="8" as="geometry"/></mxCell><mxCell id="160" value="Processing Layer" style="text;align=center;fontStyle=1;verticalAlign=middle;spacingLeft=3;spacingRight=3;strokeColor=none;rotatable=0;points=[[0,0.5],[1,0.5]];portConstraint=eastwest;" vertex="1" parent="1"><mxGeometry x="250" y="328" width="120" height="26" as="geometry"/></mxCell><mxCell id="161" value="Interface Layer" style="text;align=center;fontStyle=1;verticalAlign=middle;spacingLeft=3;spacingRight=3;strokeColor=none;rotatable=0;points=[[0,0.5],[1,0.5]];portConstraint=eastwest;" vertex="1" parent="1"><mxGeometry x="250" y="220" width="100" height="26" as="geometry"/></mxCell><mxCell id="163" style="edgeStyle=orthogonalEdgeStyle;rounded=0;orthogonalLoop=1;jettySize=auto;html=1;endArrow=classic;endFill=1;" edge="1" parent="1" source="162" target="156"><mxGeometry relative="1" as="geometry"><Array as="points"><mxPoint x="390" y="285"/><mxPoint x="390" y="395"/></Array></mxGeometry></mxCell><mxCell id="164" value="uses" style="edgeLabel;html=1;align=center;verticalAlign=middle;resizable=0;points=[];" vertex="1" connectable="0" parent="163"><mxGeometry x="-0.4667" y="1" relative="1" as="geometry"><mxPoint as="offset"/></mxGeometry></mxCell><mxCell id="165" style="edgeStyle=orthogonalEdgeStyle;rounded=0;orthogonalLoop=1;jettySize=auto;html=1;endArrow=classic;endFill=1;entryX=1;entryY=0.25;entryDx=0;entryDy=0;" edge="1" parent="1" source="162" target="155"><mxGeometry relative="1" as="geometry"><Array as="points"><mxPoint x="410" y="285"/><mxPoint x="410" y="493"/></Array></mxGeometry></mxCell><mxCell id="166" value="uses" style="edgeLabel;html=1;align=center;verticalAlign=middle;resizable=0;points=[];" vertex="1" connectable="0" parent="165"><mxGeometry x="0.0867" y="2" relative="1" as="geometry"><mxPoint x="2" y="-38" as="offset"/></mxGeometry></mxCell><mxCell id="162" value="Bus-&#10;Transceiver" style="shape=module;align=left;spacingLeft=20;align=center;verticalAlign=top;" vertex="1" parent="1"><mxGeometry x="270" y="260" width="100" height="50" as="geometry"/></mxCell><mxCell id="168" style="edgeStyle=orthogonalEdgeStyle;rounded=0;orthogonalLoop=1;jettySize=auto;html=1;entryX=1;entryY=0.75;entryDx=0;entryDy=0;endArrow=classic;endFill=1;" edge="1" parent="1" source="167" target="156"><mxGeometry relative="1" as="geometry"><Array as="points"><mxPoint x="440" y="285"/><mxPoint x="440" y="408"/></Array></mxGeometry></mxCell><mxCell id="169" value="creates" style="edgeLabel;html=1;align=center;verticalAlign=middle;resizable=0;points=[];" vertex="1" connectable="0" parent="168"><mxGeometry x="-0.2783" y="1" relative="1" as="geometry"><mxPoint y="-8" as="offset"/></mxGeometry></mxCell><mxCell id="170" style="edgeStyle=orthogonalEdgeStyle;rounded=0;orthogonalLoop=1;jettySize=auto;html=1;entryX=1;entryY=0.75;entryDx=0;entryDy=0;endArrow=classic;endFill=1;" edge="1" parent="1" source="167" target="155"><mxGeometry relative="1" as="geometry"><Array as="points"><mxPoint x="470" y="285"/><mxPoint x="470" y="518"/></Array></mxGeometry></mxCell><mxCell id="171" value="creates" style="edgeLabel;html=1;align=center;verticalAlign=middle;resizable=0;points=[];" vertex="1" connectable="0" parent="170"><mxGeometry x="0.1765" y="-2" relative="1" as="geometry"><mxPoint as="offset"/></mxGeometry></mxCell><mxCell id="167" value="Factory" style="shape=module;align=left;spacingLeft=20;align=center;verticalAlign=top;" vertex="1" parent="1"><mxGeometry x="490" y="260" width="100" height="50" as="geometry"/></mxCell></root></mxGraphModel></diagram></mxfile>